<?xml version="1.0" standalone="no"?>
<!DOCTYPE svg PUBLIC "-//W3C//DTD SVG 20010904//EN"
 "http://www.w3.org/TR/2001/REC-SVG-20010904/DTD/svg10.dtd">
<svg version="1.0" xmlns="http://www.w3.org/2000/svg"
 width="40pt" height="40pt" viewBox="0 0 512.000000 512.000000"
 preserveAspectRatio="xMidYMid meet">

<g transform="translate(0.000000,512.000000) scale(0.100000,-0.100000)"
fill="#000000" stroke="none">
<path d="M2571 3744 c-117 -31 -228 -118 -284 -222 -56 -104 -57 -111 -57
-1032 0 -825 -1 -846 -20 -878 -41 -66 -124 -90 -195 -56 -74 35 -69 -6 -75
724 -6 745 -2 707 -92 805 -162 177 -424 140 -540 -78 -23 -41 -23 -50 -28
-469 -5 -411 -6 -428 -26 -454 -51 -70 -133 -89 -202 -49 -64 38 -72 74 -72
317 0 205 -1 217 -23 259 -27 52 -98 103 -155 112 -63 11 -132 -15 -180 -67
-47 -51 -62 -96 -62 -188 l0 -68 90 0 90 0 0 64 c0 71 17 99 45 76 12 -10 15
-48 15 -219 0 -156 4 -220 15 -259 32 -106 137 -199 254 -223 148 -31 309 62
368 212 15 38 18 101 23 466 l5 421 25 27 c72 77 182 72 237 -12 17 -25 18
-73 23 -683 5 -655 5 -655 28 -704 37 -80 85 -132 160 -168 59 -29 76 -33 147
-33 67 0 89 5 136 28 66 32 132 99 162 165 22 47 22 51 27 932 5 805 7 888 22
922 30 66 68 106 131 138 131 65 281 18 352 -111 l30 -54 5 -650 c6 -701 4
-677 61 -761 58 -85 160 -137 269 -136 107 0 199 46 261 130 60 81 63 100 69
429 l5 301 25 27 c53 57 128 71 187 35 67 -40 67 -43 74 -370 6 -339 10 -356
90 -444 156 -171 429 -135 531 71 33 67 33 70 36 225 l4 158 -91 0 -91 0 0
-135 c0 -114 -3 -142 -19 -173 -25 -49 -70 -74 -133 -74 -54 0 -86 17 -122 66
-20 26 -21 44 -26 334 -5 295 -6 309 -28 354 -30 60 -92 122 -157 156 -43 23
-62 27 -140 27 -84 0 -94 -2 -153 -34 -73 -40 -125 -98 -153 -171 -17 -45 -19
-78 -19 -316 0 -300 -6 -339 -55 -383 -71 -62 -183 -43 -224 38 -21 39 -21 54
-21 650 0 410 -4 627 -11 663 -18 83 -56 155 -118 218 -115 117 -279 165 -430
124z"/>
</g>
</svg>
